<svg version="1.1" xmlns="http://www.w3.org/2000/svg" xmlns:xlink="http://www.w3.org/1999/xlink">

    <!-- DOWNLOAD -->
    <symbol id="download" x="0px" y="0px" viewBox="0 0 459 459" style="enable-background:new 0 0 459 459;" xml:space="preserve">
        <title>download</title>
        <path d="M446.25,56.1l-35.7-43.35C405.45,5.1,395.25,0,382.5,0h-306C63.75,0,53.55,5.1,45.9,12.75L12.75,56.1
            C5.1,66.3,0,76.5,0,89.25V408c0,28.05,22.95,51,51,51h357c28.05,0,51-22.95,51-51V89.25C459,76.5,453.9,66.3,446.25,56.1z
             M229.5,369.75L89.25,229.5h89.25v-51h102v51h89.25L229.5,369.75z M53.55,51l20.4-25.5h306L402.9,51H53.55z"/>
    </symbol>

    <!-- DELETE -->
    <symbol id="delete" x="0px" y="0px" viewBox="0 0 459 459" style="enable-background:new 0 0 459 459;" xml:space="preserve">
        <title>delete</title>
        <path d="M76.5,408c0,28.05,22.95,51,51,51h204c28.05,0,51-22.95,51-51V102h-306V408z M408,25.5h-89.25L293.25,0h-127.5l-25.5,25.5
            H51v51h357V25.5z"/>
    </symbol>

    <!-- MAIL -->
    <symbol id="mail" xmlns="http://www.w3.org/2000/svg" xmlns:xlink="http://www.w3.org/1999/xlink" x="0px" y="0px"
     viewBox="0 0 426.667 426.667" style="enable-background:new 0 0 426.667 426.667;" xml:space="preserve">
     <title>mail</title>
    <path d="M384,42.667H42.667c-23.573,0-42.453,19.093-42.453,42.667L0,341.333C0,364.907,19.093,384,42.667,384H384
            c23.573,0,42.667-19.093,42.667-42.667v-256C426.667,61.76,407.573,42.667,384,42.667z M384,128L213.333,234.667L42.667,128
            V85.333L213.333,192L384,85.333V128z"/>
    </symbol>

    <!-- CLOCK -->
    <symbol id="clock" xmlns="http://www.w3.org/2000/svg" xmlns:xlink="http://www.w3.org/1999/xlink" x="0px" y="0px"
	 viewBox="0 0 512 512" style="enable-background:new 0 0 512 512;" xml:space="preserve">
        <title>clock</title>
        <path d="M255.744,0C114.432,0,0,114.688,0,256s114.432,256,255.744,256C397.312,512,512,397.312,512,256S397.312,0,255.744,0z
             M364.8,362.24L230.4,281.6V128h38.4v134.4L384,330.752L364.8,362.24z"/>
    </symbol>
</svg>
