<?xml version="1.0" encoding="utf-8"?>
<!-- Generator: Adobe Illustrator 14.0.0, SVG Export Plug-In . SVG Version: 6.00 Build 43363)  -->
<!DOCTYPE svg PUBLIC "-//W3C//DTD SVG 1.1//EN" "http://www.w3.org/Graphics/SVG/1.1/DTD/svg11.dtd">
<svg version="1.1" id="Layer_1" xmlns="http://www.w3.org/2000/svg" xmlns:xlink="http://www.w3.org/1999/xlink" x="0px" y="0px"
	 width="300px" height="150px" viewBox="0 0 600 600" enable-background="new 0 0 600 600" xml:space="preserve">
<g>
	<g>
		<g>
			<ellipse fill="#D1D5E3" stroke="#000000" stroke-width="7" cx="311.294" cy="105.093" rx="38.963" ry="38.242"/>
			<rect x="305.798" y="29.783" fill="#D1D5E3" stroke="#000000" stroke-width="7" width="10.993" height="32.653"/>
			<ellipse fill="#FF0500" stroke="#000000" stroke-width="7" cx="311.294" cy="23.291" rx="10.495" ry="8.995"/>
			<g>
				<rect x="272.804" y="196.07" fill="#6696FF" stroke="#000000" stroke-width="7" width="76.786" height="25.51"/>
				<g>
					<rect x="242.114" y="91.131" fill="#D1D5E3" stroke="#000000" stroke-width="7" width="138.163" height="108.163"/>
					<ellipse stroke="#000000" stroke-width="3" cx="274.664" cy="124.767" rx="21.499" ry="19.675"/>
					<ellipse stroke="#000000" stroke-width="3" cx="343.136" cy="124.767" rx="21.499" ry="19.675"/>
					<ellipse fill="#F4FF00" stroke="#000000" stroke-width="2" cx="274.664" cy="124.767" rx="14.788" ry="15.048"/>
					<ellipse fill="#F4FF00" stroke="#000000" stroke-width="2" cx="343.136" cy="124.767" rx="14.788" ry="15.048"/>
					<rect x="253.165" y="158.814" fill="#D1D5E3" stroke="#000000" stroke-width="7" width="111.47" height="23.47"/>
					<rect x="262.563" y="162.698" stroke="#000000" stroke-width="3" width="92.673" height="15.702"/>
				</g>
			</g>
		</g>
		<g>
			<rect x="337.235" y="473.184" fill="#D1D5E3" stroke="#000000" stroke-width="7" width="18.368" height="52.041"/>
			<polygon fill="#FF0500" stroke="#000000" stroke-width="7" points="375.363,552.321 376.233,551.406 370.328,529.658 
				346.418,519.979 322.51,529.658 316.605,551.406 317.473,552.321 			"/>
		</g>
		<g>
			<polygon fill="#D1D5E3" stroke="#000000" stroke-width="7" points="422.25,220.428 189.597,220.428 189.597,382.689 
				192.758,382.689 190.597,385.962 248.204,473.184 363.418,473.184 421.025,385.962 418.865,382.689 422.25,382.689 			"/>
			<g>
				<rect x="208.559" y="245.276" fill="#D1D5E3" stroke="#000000" stroke-width="7" width="137.861" height="88.091"/>
				<rect x="222.845" y="256.836" fill="#00C3DF" stroke="#000000" stroke-width="7" width="75.816" height="64.287"/>
				<rect x="311.098" y="256.836" fill="#F4FF00" stroke="#000000" stroke-width="7" width="22.973" height="64.287"/>
				<ellipse fill="#D1D5E3" stroke="#000000" stroke-width="4" cx="389.172" cy="265.006" rx="19.389" ry="19.729"/>
				<ellipse fill="#D1D5E3" stroke="#000000" stroke-width="4" cx="389.172" cy="321.123" rx="19.389" ry="19.729"/>
				<ellipse fill="#FF0500" stroke="#000000" stroke-width="3" cx="389.171" cy="265.006" rx="12.534" ry="12.754"/>
				<ellipse fill="#F4FF00" stroke="#000000" stroke-width="3" cx="389.173" cy="321.123" rx="12.534" ry="12.754"/>
				<ellipse fill="#00C3DF" stroke="#000000" stroke-width="5" cx="222.845" cy="360.07" rx="12.534" ry="12.756"/>
				<ellipse fill="#00C3DF" stroke="#000000" stroke-width="5" cx="339.396" cy="360.07" rx="12.534" ry="12.756"/>
				<ellipse fill="#00C3DF" stroke="#000000" stroke-width="5" cx="298.661" cy="360.07" rx="12.534" ry="12.756"/>
				<ellipse fill="#00C3DF" stroke="#000000" stroke-width="5" cx="260.753" cy="360.07" rx="12.534" ry="12.756"/>
			</g>
		</g>
		<g>
			<rect x="256.01" y="473.184" fill="#D1D5E3" stroke="#000000" stroke-width="7" width="18.368" height="52.041"/>
			<polygon fill="#FF0500" stroke="#000000" stroke-width="7" points="294.138,552.321 295.008,551.406 289.103,529.658 
				265.193,519.979 241.285,529.658 235.379,551.406 236.248,552.321 			"/>
		</g>
		<g>
			<rect x="422.25" y="231.063" fill="#00D6FF" stroke="#000000" stroke-width="7" width="14.285" height="51.02"/>
			<g>
				<rect x="437.637" y="216.777" fill="#D1D5E3" stroke="#000000" stroke-width="7" width="84.694" height="80.612"/>
				<rect x="464.086" y="297.389" fill="#D1D5E3" stroke="#000000" stroke-width="7" width="36.734" height="71.43"/>
				<path fill="#FF0500" stroke="#000000" stroke-width="7" d="M451.102,449.957l16.652-16.652
					c-3.929-3.827-6.371-9.172-6.371-15.09c0-11.637,9.434-21.071,21.07-21.071s21.071,9.435,21.071,21.071
					c0,5.918-2.442,11.263-6.371,15.09l16.652,16.652c8.19-8.09,13.269-19.321,13.269-31.742c0-24.644-19.977-44.621-44.621-44.621
					c-24.643,0-44.621,19.978-44.621,44.621C437.832,430.636,442.912,441.867,451.102,449.957z"/>
			</g>
		</g>
		<g>
			<rect x="171.601" y="231.573" fill="#00D6FF" stroke="#000000" stroke-width="7" width="14.286" height="51.019"/>
			<g>
				<rect x="85.805" y="217.287" fill="#D1D5E3" stroke="#000000" stroke-width="7" width="84.694" height="80.612"/>
				<rect x="107.315" y="297.898" fill="#D1D5E3" stroke="#000000" stroke-width="7" width="36.734" height="71.43"/>
				<path fill="#FF0500" stroke="#000000" stroke-width="7" d="M157.035,450.467l-16.652-16.652
					c3.928-3.827,6.371-9.172,6.371-15.09c0-11.637-9.434-21.071-21.071-21.071c-11.637,0-21.071,9.435-21.071,21.071
					c0,5.918,2.442,11.263,6.371,15.09l-16.652,16.652c-8.19-8.09-13.269-19.321-13.269-31.742
					c0-24.644,19.978-44.621,44.621-44.621s44.621,19.978,44.621,44.621C170.304,431.146,165.225,442.377,157.035,450.467z"/>
			</g>
		</g>
	</g>
	<g>
		<line fill="none" stroke="#000000" stroke-width="7" x1="208.559" y1="388.283" x2="253.165" y2="459.283"/>
		<line fill="none" stroke="#000000" stroke-width="7" x1="230.781" y1="388.283" x2="264.805" y2="459.283"/>
		<line fill="none" stroke="#000000" stroke-width="7" x1="253.004" y1="388.283" x2="276.445" y2="459.283"/>
		<line fill="none" stroke="#000000" stroke-width="7" x1="275.226" y1="388.283" x2="288.084" y2="459.283"/>
		<line fill="none" stroke="#000000" stroke-width="7" x1="297.448" y1="388.283" x2="299.725" y2="459.283"/>
		<line fill="none" stroke="#000000" stroke-width="7" x1="319.671" y1="388.283" x2="311.364" y2="459.283"/>
		<line fill="none" stroke="#000000" stroke-width="7" x1="341.893" y1="388.283" x2="323.004" y2="459.283"/>
		<line fill="none" stroke="#000000" stroke-width="7" x1="364.115" y1="388.283" x2="334.645" y2="459.283"/>
		<line fill="none" stroke="#000000" stroke-width="7" x1="386.338" y1="388.283" x2="346.284" y2="459.283"/>
		<line fill="none" stroke="#000000" stroke-width="7" x1="408.561" y1="388.283" x2="357.924" y2="459.283"/>
	</g>
</g>
</svg>
